<?xml version="1.0" encoding="UTF-8" standalone="no"?>
<!DOCTYPE svg PUBLIC "-//W3C//DTD SVG 1.1//EN"
 "http://www.w3.org/Graphics/SVG/1.1/DTD/svg11.dtd">
<!-- Generated by graphviz version 2.44.0 (20200408.0750)
 -->
<!-- Title: dependency&#45;cruiser output Pages: 1 -->
<svg width="289pt" height="209pt"
 viewBox="0.00 0.00 289.00 209.38" xmlns="http://www.w3.org/2000/svg" xmlns:xlink="http://www.w3.org/1999/xlink">
<g id="graph0" class="graph" transform="scale(1 1) rotate(0) translate(4 205.38)">
<title>dependency&#45;cruiser output</title>
<polygon fill="white" stroke="transparent" points="-4,4 -4,-205.38 285,-205.38 285,4 -4,4"/>
<g id="clust1" class="cluster">
<title>cluster_node_modules</title>
<path fill="#ffffff" stroke="black" stroke-width="2" d="M203,-33C203,-33 261,-33 261,-33 267,-33 273,-39 273,-45 273,-45 273,-133 273,-133 273,-139 267,-145 261,-145 261,-145 203,-145 203,-145 197,-145 191,-139 191,-133 191,-133 191,-45 191,-45 191,-39 197,-33 203,-33"/>
<text text-anchor="middle" x="232" y="-133.8" font-family="Helvetica,sans-Serif" font-weight="bold" font-size="9.00">node_modules</text>
</g>
<g id="clust2" class="cluster">
<title>cluster_test</title>
<path fill="#ffffff" stroke="black" stroke-width="2" d="M27,-57C27,-57 171,-57 171,-57 177,-57 183,-63 183,-69 183,-69 183,-127 183,-127 183,-133 177,-139 171,-139 171,-139 27,-139 27,-139 21,-139 15,-133 15,-127 15,-127 15,-69 15,-69 15,-63 21,-57 27,-57"/>
<text text-anchor="middle" x="99" y="-127.8" font-family="Helvetica,sans-Serif" font-weight="bold" font-size="9.00">test</text>
</g>
<!-- LICENSE -->
<g id="node1" class="node">
<title>LICENSE</title>
<g id="a_node1"><a xlink:href="LICENSE" xlink:title="LICENSE">
<path fill="#ffffcc" stroke="black" d="M76,-19C76,-19 32,-19 32,-19 29,-19 26,-16 26,-13 26,-13 26,-7 26,-7 26,-4 29,-1 32,-1 32,-1 76,-1 76,-1 79,-1 82,-4 82,-7 82,-7 82,-13 82,-13 82,-16 79,-19 76,-19"/>
<text text-anchor="middle" x="54" y="-7.8" font-family="Helvetica,sans-Serif" font-size="9.00">LICENSE</text>
</a>
</g>
</g>
<!-- ✖ -->
<g id="node2" class="node">
<title>✖</title>
<path fill="#ffffcc" stroke="red" d="M169,-19C169,-19 127,-19 127,-19 124,-19 121,-16 121,-13 121,-13 121,-7 121,-7 121,-4 124,-1 127,-1 127,-1 169,-1 169,-1 172,-1 175,-4 175,-7 175,-7 175,-13 175,-13 175,-16 172,-19 169,-19"/>
<text text-anchor="middle" x="148" y="-7.8" font-family="Helvetica,sans-Serif" font-size="9.00" fill="red">✖</text>
</g>
<!-- LICENSE&#45;&gt;✖ -->
<g id="edge1" class="edge">
<title>LICENSE&#45;&gt;✖</title>
<g id="a_edge1"><a xlink:title="not&#45;to&#45;unresolvable">
<path fill="none" stroke="red" stroke-width="2" d="M82.11,-10C92.3,-10 103.98,-10 114.61,-10"/>
<polygon fill="red" stroke="red" stroke-width="2" points="114.72,-12.1 120.72,-10 114.72,-7.9 114.72,-12.1"/>
</a>
</g>
<text text-anchor="middle" x="141.31" y="-2.8" font-family="Helvetica,sans-Serif" font-size="9.00" fill="red">not&#45;to&#45;unresolvable</text>
</g>
<!-- README.md -->
<g id="node3" class="node">
<title>README.md</title>
<g id="a_node3"><a xlink:href="README.md" xlink:title="no&#45;orphans">
<path fill="#ccffcc" stroke="orange" d="M83.5,-49C83.5,-49 24.5,-49 24.5,-49 21.5,-49 18.5,-46 18.5,-43 18.5,-43 18.5,-37 18.5,-37 18.5,-34 21.5,-31 24.5,-31 24.5,-31 83.5,-31 83.5,-31 86.5,-31 89.5,-34 89.5,-37 89.5,-37 89.5,-43 89.5,-43 89.5,-46 86.5,-49 83.5,-49"/>
<text text-anchor="middle" x="54" y="-37.8" font-family="Helvetica,sans-Serif" font-size="9.00" fill="orange">README.md</text>
</a>
</g>
</g>
<!-- app.js -->
<g id="node4" class="node">
<title>app.js</title>
<g id="a_node4"><a xlink:href="app.js" xlink:title="app.js">
<path fill="#ffffcc" stroke="black" d="M253,-171C253,-171 211,-171 211,-171 208,-171 205,-168 205,-165 205,-165 205,-159 205,-159 205,-156 208,-153 211,-153 211,-153 253,-153 253,-153 256,-153 259,-156 259,-159 259,-159 259,-165 259,-165 259,-168 256,-171 253,-171"/>
<text text-anchor="middle" x="232" y="-159.8" font-family="Helvetica,sans-Serif" font-size="9.00">app.js</text>
</a>
</g>
</g>
<!-- dependencygraph.svg -->
<g id="node5" class="node">
<title>dependencygraph.svg</title>
<g id="a_node5"><a xlink:href="dependencygraph.svg" xlink:title="no&#45;orphans">
<path fill="#ccffcc" stroke="orange" d="M102,-165C102,-165 6,-165 6,-165 3,-165 0,-162 0,-159 0,-159 0,-153 0,-153 0,-150 3,-147 6,-147 6,-147 102,-147 102,-147 105,-147 108,-150 108,-153 108,-153 108,-159 108,-159 108,-162 105,-165 102,-165"/>
<text text-anchor="middle" x="54" y="-153.8" font-family="Helvetica,sans-Serif" font-size="9.00" fill="orange">dependencygraph.svg</text>
</a>
</g>
</g>
<!-- node_modules/axios -->
<g id="node6" class="node">
<title>node_modules/axios</title>
<g id="a_node6"><a xlink:href="node_modules/axios" xlink:title="axios">
<polygon fill="#c40b0a" fill-opacity="0.101961" stroke="black" points="259,-59 207,-59 205,-57 205,-41 257,-41 259,-43 259,-59"/>
<polyline fill="none" stroke="black" points="257,-57 205,-57 "/>
<polyline fill="none" stroke="black" points="257,-57 257,-41 "/>
<polyline fill="none" stroke="black" points="257,-57 259,-59 "/>
<text text-anchor="middle" x="232" y="-47.8" font-family="Helvetica,sans-Serif" font-size="9.00" fill="#c40b0a">axios</text>
</a>
</g>
</g>
<!-- node_modules/body&#45;parser -->
<g id="node7" class="node">
<title>node_modules/body&#45;parser</title>
<g id="a_node7"><a xlink:href="node_modules/body-parser" xlink:title="body&#45;parser">
<polygon fill="#c40b0a" fill-opacity="0.101961" stroke="black" points="265,-89 201,-89 199,-87 199,-71 263,-71 265,-73 265,-89"/>
<polyline fill="none" stroke="black" points="263,-87 199,-87 "/>
<polyline fill="none" stroke="black" points="263,-87 263,-71 "/>
<polyline fill="none" stroke="black" points="263,-87 265,-89 "/>
<text text-anchor="middle" x="232" y="-77.8" font-family="Helvetica,sans-Serif" font-size="9.00" fill="#c40b0a">body&#45;parser</text>
</a>
</g>
</g>
<!-- node_modules/express -->
<g id="node8" class="node">
<title>node_modules/express</title>
<g id="a_node8"><a xlink:href="node_modules/express" xlink:title="express">
<polygon fill="#c40b0a" fill-opacity="0.101961" stroke="black" points="259,-119 207,-119 205,-117 205,-101 257,-101 259,-103 259,-119"/>
<polyline fill="none" stroke="black" points="257,-117 205,-117 "/>
<polyline fill="none" stroke="black" points="257,-117 257,-101 "/>
<polyline fill="none" stroke="black" points="257,-117 259,-119 "/>
<text text-anchor="middle" x="232" y="-107.8" font-family="Helvetica,sans-Serif" font-size="9.00" fill="#c40b0a">express</text>
</a>
</g>
</g>
<!-- package.json -->
<g id="node9" class="node">
<title>package.json</title>
<g id="a_node9"><a xlink:href="package.json" xlink:title="no&#45;orphans">
<defs>
<linearGradient id="l_0" gradientUnits="userSpaceOnUse" x1="18.5" y1="-189" x2="89.5" y2="-189" >
<stop offset="0" style="stop-color:#ffffff;stop-opacity:0.200000;"/>
<stop offset="1" style="stop-color:#ffffff;stop-opacity:0.533333;"/>
</linearGradient>
</defs>
<path fill="url(#l_0)" stroke="orange" d="M89.5,-199.02C89.5,-200.25 73.59,-201.25 54,-201.25 34.41,-201.25 18.5,-200.25 18.5,-199.02 18.5,-199.02 18.5,-178.98 18.5,-178.98 18.5,-177.75 34.41,-176.75 54,-176.75 73.59,-176.75 89.5,-177.75 89.5,-178.98 89.5,-178.98 89.5,-199.02 89.5,-199.02"/>
<path fill="none" stroke="orange" d="M89.5,-199.02C89.5,-197.79 73.59,-196.8 54,-196.8 34.41,-196.8 18.5,-197.79 18.5,-199.02"/>
<text text-anchor="middle" x="54" y="-186.8" font-family="Helvetica,sans-Serif" font-size="9.00" fill="orange">package.json</text>
</a>
</g>
</g>
<!-- test/main.test.js -->
<g id="node10" class="node">
<title>test/main.test.js</title>
<g id="a_node10"><a xlink:href="test/main.test.js" xlink:title="main.test.js">
<path fill="#ffffcc" stroke="black" d="M79,-113C79,-113 29,-113 29,-113 26,-113 23,-110 23,-107 23,-107 23,-101 23,-101 23,-98 26,-95 29,-95 29,-95 79,-95 79,-95 82,-95 85,-98 85,-101 85,-101 85,-107 85,-107 85,-110 82,-113 79,-113"/>
<text text-anchor="middle" x="54" y="-101.8" font-family="Helvetica,sans-Serif" font-size="9.00">main.test.js</text>
</a>
</g>
</g>
<!-- test/main.test.js&#45;&gt;node_modules/axios -->
<g id="edge3" class="edge">
<title>test/main.test.js&#45;&gt;node_modules/axios</title>
<path fill="none" stroke="#000000" stroke-dasharray="5,2" stroke-opacity="0.200000" d="M85.04,-95.67C92.55,-93.54 100.58,-91.23 108,-89 138.99,-79.7 174.16,-68.48 198.93,-60.47"/>
<polygon fill="#000000" fill-opacity="0.200000" stroke="#000000" stroke-opacity="0.200000" points="199.62,-62.45 204.68,-58.61 198.33,-58.46 199.62,-62.45"/>
</g>
<!-- test/server.js -->
<g id="node11" class="node">
<title>test/server.js</title>
<g id="a_node11"><a xlink:href="test/server.js" xlink:title="server.js">
<path fill="#ffffcc" stroke="black" d="M169,-113C169,-113 127,-113 127,-113 124,-113 121,-110 121,-107 121,-107 121,-101 121,-101 121,-98 124,-95 127,-95 127,-95 169,-95 169,-95 172,-95 175,-98 175,-101 175,-101 175,-107 175,-107 175,-110 172,-113 169,-113"/>
<text text-anchor="middle" x="148" y="-101.8" font-family="Helvetica,sans-Serif" font-size="9.00">server.js</text>
</a>
</g>
</g>
<!-- test/main.test.js&#45;&gt;test/server.js -->
<g id="edge2" class="edge">
<title>test/main.test.js&#45;&gt;test/server.js</title>
<path fill="none" stroke="#000000" stroke-width="2" stroke-opacity="0.200000" d="M85.12,-104C94.58,-104 105.06,-104 114.66,-104"/>
<polygon fill="#000000" fill-opacity="0.200000" stroke="#000000" stroke-width="2" stroke-opacity="0.200000" points="114.83,-106.1 120.83,-104 114.83,-101.9 114.83,-106.1"/>
</g>
<!-- test/server.js&#45;&gt;app.js -->
<g id="edge5" class="edge">
<title>test/server.js&#45;&gt;app.js</title>
<path fill="none" stroke="#000000" stroke-width="2" stroke-opacity="0.200000" d="M155.73,-113.33C163.3,-123.2 176.44,-138.62 191,-148 193.5,-149.61 196.2,-151.06 198.98,-152.36"/>
<polygon fill="#000000" fill-opacity="0.200000" stroke="#000000" stroke-width="2" stroke-opacity="0.200000" points="198.43,-154.41 204.77,-154.82 200.07,-150.54 198.43,-154.41"/>
</g>
<!-- test/server.js&#45;&gt;node_modules/body&#45;parser -->
<g id="edge6" class="edge">
<title>test/server.js&#45;&gt;node_modules/body&#45;parser</title>
<path fill="none" stroke="#000000" stroke-dasharray="5,2" stroke-opacity="0.200000" d="M175.4,-96.27C181.42,-94.51 187.92,-92.61 194.29,-90.74"/>
<polygon fill="#000000" fill-opacity="0.200000" stroke="#000000" stroke-opacity="0.200000" points="194.91,-92.75 200.08,-89.05 193.73,-88.72 194.91,-92.75"/>
</g>
<!-- test/server.js&#45;&gt;node_modules/express -->
<g id="edge7" class="edge">
<title>test/server.js&#45;&gt;node_modules/express</title>
<path fill="none" stroke="#000000" stroke-dasharray="5,2" stroke-opacity="0.200000" d="M175.4,-105.93C182.79,-106.47 190.9,-107.07 198.6,-107.63"/>
<polygon fill="#000000" fill-opacity="0.200000" stroke="#000000" stroke-opacity="0.200000" points="198.8,-109.75 204.93,-108.09 199.1,-105.56 198.8,-109.75"/>
</g>
<!-- test/preTest.js -->
<g id="node12" class="node">
<title>test/preTest.js</title>
<g id="a_node12"><a xlink:href="test/preTest.js" xlink:title="preTest.js">
<path fill="#ffffcc" stroke="black" d="M76,-83C76,-83 32,-83 32,-83 29,-83 26,-80 26,-77 26,-77 26,-71 26,-71 26,-68 29,-65 32,-65 32,-65 76,-65 76,-65 79,-65 82,-68 82,-71 82,-71 82,-77 82,-77 82,-80 79,-83 76,-83"/>
<text text-anchor="middle" x="54" y="-71.8" font-family="Helvetica,sans-Serif" font-size="9.00">preTest.js</text>
</a>
</g>
</g>
<!-- test/preTest.js&#45;&gt;node_modules/axios -->
<g id="edge4" class="edge">
<title>test/preTest.js&#45;&gt;node_modules/axios</title>
<path fill="none" stroke="#000000" stroke-dasharray="5,2" stroke-opacity="0.200000" d="M82.11,-70.3C113.52,-66.02 165.23,-58.97 198.69,-54.41"/>
<polygon fill="#000000" fill-opacity="0.200000" stroke="#000000" stroke-opacity="0.200000" points="199.06,-56.48 204.72,-53.58 198.49,-52.31 199.06,-56.48"/>
</g>
</g>
</svg>
